<svg viewBox="0 0 7.1646 14.4479" fill="none" xmlns="http://www.w3.org/2000/svg" xmlns:xlink="http://www.w3.org/1999/xlink" x="0" y="0"><path id="Vector_16" d="M0.6273,14.4476c-0.16,0 -0.32,-0.058 -0.45,-0.183c-0.24,-0.242 -0.24,-0.642 0,-0.883l5.44,-5.434c0.4,-0.4 0.4,-1.05 0,-1.45l-5.44,-5.433c-0.24,-0.242 -0.24,-0.642 0,-0.883c0.25,-0.242 0.65,-0.242 0.89,0l5.43,5.433c0.43,0.425 0.67,1 0.67,1.608c0,0.609 -0.24,1.184 -0.67,1.609l-5.43,5.433c-0.13,0.117 -0.29,0.183 -0.44,0.183z" fill="currentColor"/></svg>