<svg viewBox="0 0 12.5417 11.375" fill="none" xmlns="http://www.w3.org/2000/svg" xmlns:xlink="http://www.w3.org/1999/xlink" x="0" y="0"><g id="Union">
<path fill-rule="evenodd" clip-rule="evenodd" d="M10.3545,-0.0025c0.266,0 0.487,0 0.668,0.01c0.185,0.02 0.36,0.04 0.529,0.11c0.393,0.17 0.705,0.48 0.868,0.87c0.07,0.17 0.098,0.35 0.11,0.53c0.013,0.18 0.012,0.4 0.012,0.67v8.75c0,0.24 -0.196,0.44 -0.437,0.44c-0.242,0 -0.438,-0.2 -0.438,-0.44v-8.31h-10.791v8.31c0,0.24 -0.196,0.44 -0.438,0.44c-0.242,0 -0.437,-0.2 -0.437,-0.44v-8.75c0,-0.27 -0.001,-0.49 0.011,-0.67c0.013,-0.18 0.04,-0.36 0.11,-0.53c0.163,-0.39 0.476,-0.7 0.869,-0.87c0.169,-0.07 0.344,-0.09 0.529,-0.11c0.181,-0.01 0.402,-0.01 0.668,-0.01zM2.1875,0.8775c-0.278,0 -0.464,0 -0.608,0.01c-0.141,0.01 -0.209,0.02 -0.254,0.04c-0.179,0.08 -0.321,0.22 -0.395,0.4c-0.019,0.04 -0.036,0.11 -0.045,0.25c-0.004,0.05 -0.005,0.11 -0.006,0.17h10.783c-0.001,-0.06 -0.003,-0.12 -0.006,-0.17c-0.01,-0.14 -0.026,-0.21 -0.045,-0.25c-0.074,-0.18 -0.216,-0.32 -0.395,-0.4c-0.045,-0.02 -0.114,-0.03 -0.254,-0.04c-0.144,-0.01 -0.331,-0.01 -0.608,-0.01z" fill="currentColor"/>
<path d="M4.2295,7.8675c0.241,0 0.437,0.2 0.437,0.44v0.01c0,0.24 -0.196,0.43 -0.437,0.43c-0.242,0 -0.438,-0.19 -0.438,-0.43v-0.01c0,-0.24 0.196,-0.44 0.438,-0.44z" fill="currentColor"/>
<path d="M8.3125,7.8675c0.242,0 0.438,0.2 0.438,0.44v0.01c-0.001,0.24 -0.196,0.43 -0.438,0.43c-0.242,0 -0.437,-0.19 -0.437,-0.43v-0.01c0,-0.24 0.195,-0.44 0.437,-0.44z" fill="currentColor"/>
<path fill-rule="evenodd" clip-rule="evenodd" d="M6.4905,4.0875c0.427,0 0.786,0 1.076,0.03c0.302,0.04 0.578,0.11 0.822,0.31l0.088,0.07c0.192,0.18 0.314,0.4 0.409,0.65c0.104,0.27 0.19,0.62 0.293,1.03l0.059,0.24c0.541,0.03 0.971,0.47 0.971,1.02v1.75c0,0.56 -0.457,1.02 -1.021,1.02h-0.146v0.73c0,0.24 -0.196,0.44 -0.437,0.44c-0.242,0 -0.438,-0.2 -0.438,-0.44v-0.73h-3.791v0.73c0,0.24 -0.196,0.44 -0.438,0.44c-0.242,0 -0.437,-0.2 -0.437,-0.44v-0.73h-0.146c-0.564,0 -1.021,-0.46 -1.021,-1.02v-1.75c0,-0.55 0.43,-0.99 0.97,-1.02l0.059,-0.24c0.104,-0.41 0.19,-0.76 0.294,-1.03c0.108,-0.28 0.252,-0.53 0.496,-0.72c0.245,-0.2 0.521,-0.27 0.823,-0.31c0.29,-0.03 0.649,-0.03 1.075,-0.03zM3.3545,7.2875c-0.081,0 -0.146,0.07 -0.146,0.15v1.75c0,0.08 0.065,0.15 0.146,0.15h5.833c0.081,0 0.146,-0.07 0.146,-0.15v-1.75c0,-0.08 -0.065,-0.15 -0.146,-0.15zM6.0505,4.9575c-0.448,0 -0.745,0 -0.971,0.03c-0.215,0.02 -0.316,0.07 -0.388,0.13c-0.072,0.05 -0.14,0.14 -0.217,0.34c-0.081,0.21 -0.154,0.5 -0.263,0.94l-0.006,0.02h4.13l-0.005,-0.02c-0.109,-0.44 -0.182,-0.73 -0.264,-0.94c-0.076,-0.2 -0.144,-0.29 -0.216,-0.34c-0.072,-0.06 -0.173,-0.11 -0.388,-0.13c-0.226,-0.03 -0.524,-0.03 -0.972,-0.03z" fill="currentColor"/>
</g></svg>