<svg viewBox="0 0 21.5038 21.4959" fill="none" xmlns="http://www.w3.org/2000/svg" xmlns:xlink="http://www.w3.org/1999/xlink" x="0" y="0"><g id="key_2">
<path id="Vector_71" d="M18.544,13.6722c-2.06,2.05 -5.01,2.68 -7.6,1.87l-4.71,4.7c-0.34,0.35 -1.01,0.56 -1.49,0.49l-2.18,-0.3c-0.72,-0.1 -1.39,-0.78 -1.5,-1.5l-0.3,-2.18c-0.07,-0.48 0.16,-1.15 0.49,-1.49l4.7,-4.7c-0.8,-2.6 -0.18,-5.55 1.88,-7.6c2.95,-2.95 7.74,-2.95 10.7,0c2.96,2.95 2.96,7.76 0.01,10.71z" stroke="white" stroke-width="1.5" stroke-miterlimit="10" stroke-linecap="round" stroke-linejoin="round"/>
<path id="Vector_72" d="M5.644,16.2322l2.3,2.3" stroke="white" stroke-width="1.5" stroke-miterlimit="10" stroke-linecap="round" stroke-linejoin="round"/>
<path id="Vector_73" d="M13.254,9.7422c0.83,0 1.5,-0.67 1.5,-1.5c0,-0.83 -0.67,-1.5 -1.5,-1.5c-0.83,0 -1.5,0.67 -1.5,1.5c0,0.83 0.67,1.5 1.5,1.5z" stroke="white" stroke-width="1.5" stroke-linecap="round" stroke-linejoin="round"/>
</g></svg>