<svg viewBox="0 0 53 48.7344" fill="none" xmlns="http://www.w3.org/2000/svg" xmlns:xlink="http://www.w3.org/1999/xlink" x="0" y="0"><g id="Vector + Text_2">
<g id="Vector_74">
<path id="Vector 1_2" d="M0,28.63v-28.63h33.684v8.42h-3.368v-2.53v-2.52h-13.4739h-13.4737v21.89h18.5266v3.37z" fill="#3479FD"/>
<path id="Vector 2_2" d="M0,30.31v6.74h26.947v-6.74z" fill="#3479FD"/>
<path id="Vector 4_2" d="M35.369,0h16.842v21.89h-16.842v-5.47v-5.47z" fill="#3479FD"/>
<path id="Vector 5_2" d="M52.211,23.58v13.47h-21.895v-1.68h20.211v-10.11h-8.421v-1.68z" fill="#3479FD"/>
<path id="Vector_75" d="M29.962,23.34c-0.306,0 -0.599,0.12 -0.816,0.34c-0.216,0.21 -0.337,0.51 -0.337,0.81c0,0.23 0.067,0.45 0.194,0.64c0.127,0.19 0.307,0.34 0.518,0.43c0.21,0.08 0.442,0.11 0.666,0.06c0.223,-0.04 0.429,-0.15 0.59,-0.31c0.162,-0.16 0.272,-0.37 0.317,-0.59c0.044,-0.23 0.021,-0.46 -0.066,-0.67c-0.087,-0.21 -0.236,-0.39 -0.425,-0.52c-0.19,-0.12 -0.413,-0.19 -0.641,-0.19zM38.661,24.49c0,3.61 -1.902,6.65 -3.672,8.73c-1.784,2.09 -3.603,3.38 -3.805,3.53c-0.359,0.25 -0.785,0.38 -1.222,0.38c-0.437,0 -0.865,-0.13 -1.223,-0.38v0c-0.206,-0.15 -2.022,-1.45 -3.804,-3.53c-1.77,-2.08 -3.672,-5.12 -3.672,-8.73v0c0.002,-2.31 0.92,-4.52 2.55,-6.15c1.631,-1.63 3.841,-2.55 6.147,-2.55h0.004c2.306,0 4.516,0.92 6.146,2.55c1.631,1.63 2.548,3.84 2.551,6.15z" fill="#3479FD" stroke="#111111" stroke-width="2.94737"/>
</g>
<path id="SpaceFinda_2" d="M3.0905,46.87c-0.5501,0 -1.0189,-0.09 -1.4063,-0.26c-0.3874,-0.18 -0.6877,-0.42 -0.901,-0.74c-0.2134,-0.32 -0.3341,-0.7 -0.3621,-1.14l1.6421,-0.08c0.028,0.2 0.0842,0.37 0.1684,0.51c0.0842,0.13 0.1965,0.24 0.3368,0.31c0.146,0.07 0.3256,0.1 0.539,0.1c0.1684,0 0.3115,-0.01 0.4294,-0.05c0.1179,-0.04 0.2078,-0.1 0.2695,-0.18c0.0618,-0.07 0.0926,-0.17 0.0926,-0.29c0,-0.11 -0.028,-0.2 -0.0842,-0.28c-0.0505,-0.08 -0.1543,-0.15 -0.3115,-0.22c-0.1516,-0.06 -0.379,-0.13 -0.6821,-0.19c-0.5446,-0.11 -0.9853,-0.24 -1.3222,-0.39c-0.3368,-0.15 -0.5838,-0.34 -0.741,-0.58c-0.1516,-0.23 -0.2274,-0.53 -0.2274,-0.9c0,-0.37 0.0955,-0.7 0.2863,-0.98c0.1909,-0.28 0.466,-0.5 0.8253,-0.65c0.3593,-0.16 0.7916,-0.24 1.2968,-0.24c0.5334,0 0.9797,0.09 1.339,0.27c0.3593,0.18 0.6372,0.43 0.8337,0.74c0.2021,0.32 0.3228,0.68 0.3621,1.1l-1.6253,0.06c-0.0112,-0.18 -0.0561,-0.34 -0.1347,-0.47c-0.0786,-0.13 -0.1853,-0.23 -0.32,-0.29c-0.1291,-0.08 -0.2863,-0.11 -0.4716,-0.11c-0.2358,0 -0.4182,0.05 -0.5474,0.14c-0.1291,0.1 -0.1936,0.22 -0.1936,0.38c0,0.12 0.0308,0.23 0.0926,0.31c0.0674,0.09 0.174,0.16 0.32,0.21c0.1516,0.06 0.3565,0.11 0.6147,0.15c0.5895,0.1 1.0555,0.24 1.3979,0.42c0.3425,0.17 0.5839,0.38 0.7242,0.62c0.146,0.24 0.219,0.52 0.219,0.83c0,0.39 -0.0983,0.73 -0.2948,1.01c-0.1908,0.28 -0.4715,0.5 -0.8421,0.65c-0.3649,0.15 -0.8056,0.23 -1.3221,0.23zM6.6104,48v-5.81h1.5916l0.0337,0.95l-0.1095,-0.04c0.1123,-0.33 0.2919,-0.58 0.5389,-0.75c0.247,-0.18 0.539,-0.26 0.8758,-0.26c0.4042,0 0.7467,0.1 1.0274,0.3c0.2807,0.2 0.494,0.48 0.64,0.84c0.146,0.35 0.2189,0.76 0.2189,1.23c0,0.46 -0.0758,0.87 -0.2273,1.23c-0.146,0.36 -0.3621,0.64 -0.6485,0.84c-0.2807,0.2 -0.6231,0.31 -1.0273,0.31c-0.2134,0 -0.4127,-0.04 -0.5979,-0.12c-0.1853,-0.09 -0.3481,-0.2 -0.4884,-0.36c-0.1348,-0.15 -0.2358,-0.33 -0.3032,-0.54l0.1095,-0.03v2.21zM8.9936,45.66c0.2357,0 0.421,-0.1 0.5557,-0.32c0.1348,-0.21 0.2021,-0.51 0.2021,-0.88c0,-0.37 -0.0673,-0.66 -0.2021,-0.88c-0.1347,-0.21 -0.32,-0.32 -0.5557,-0.32c-0.1572,0 -0.292,0.04 -0.4043,0.13c-0.1122,0.09 -0.1993,0.23 -0.261,0.41c-0.0562,0.18 -0.0842,0.4 -0.0842,0.66c0,0.26 0.028,0.49 0.0842,0.67c0.0617,0.18 0.1488,0.31 0.261,0.4c0.1123,0.09 0.2471,0.13 0.4043,0.13zM13.6958,46.84c-0.4772,0 -0.8702,-0.11 -1.179,-0.33c-0.3087,-0.22 -0.4631,-0.53 -0.4631,-0.92c0,-0.41 0.1319,-0.71 0.3958,-0.93c0.2694,-0.22 0.6512,-0.38 1.1452,-0.49l1.3642,-0.28c0,-0.24 -0.0505,-0.42 -0.1515,-0.54c-0.1011,-0.12 -0.2414,-0.19 -0.4211,-0.19c-0.1909,0 -0.3396,0.05 -0.4463,0.15c-0.1011,0.09 -0.1656,0.22 -0.1937,0.4l-1.6168,-0.05c0.0898,-0.55 0.3284,-0.95 0.7158,-1.2c0.3873,-0.25 0.901,-0.37 1.541,-0.37c0.7411,0 1.2941,0.16 1.659,0.48c0.3649,0.32 0.5473,0.8 0.5473,1.45v1.33c0,0.15 0.0225,0.24 0.0674,0.29c0.0505,0.04 0.1179,0.07 0.2021,0.07h0.0926v1.02c-0.0505,0.02 -0.1319,0.04 -0.2442,0.05c-0.1123,0.01 -0.2217,0.02 -0.3284,0.02c-0.1628,0 -0.3312,-0.03 -0.5053,-0.08c-0.174,-0.06 -0.32,-0.17 -0.4379,-0.32c-0.1178,-0.17 -0.1768,-0.4 -0.1768,-0.71l0.1179,0.13c-0.0618,0.21 -0.1628,0.39 -0.3032,0.54c-0.1403,0.16 -0.3256,0.27 -0.5557,0.36c-0.2246,0.08 -0.4997,0.12 -0.8253,0.12zM14.1505,45.81c0.1516,0 0.2863,-0.03 0.4042,-0.09c0.1235,-0.07 0.2218,-0.16 0.2948,-0.28c0.073,-0.13 0.1094,-0.29 0.1094,-0.49v-0.15l-0.741,0.18c-0.1404,0.04 -0.2583,0.09 -0.3537,0.17c-0.0898,0.07 -0.1347,0.17 -0.1347,0.29c0,0.12 0.0337,0.21 0.101,0.28c0.0674,0.06 0.1741,0.09 0.32,0.09zM19.8291,46.84c-0.4941,0 -0.9263,-0.1 -1.2969,-0.3c-0.3649,-0.2 -0.6512,-0.47 -0.8589,-0.82c-0.2021,-0.36 -0.3032,-0.78 -0.3032,-1.26c0,-0.48 0.1011,-0.89 0.3032,-1.25c0.2077,-0.35 0.494,-0.62 0.8589,-0.82c0.3706,-0.2 0.8028,-0.3 1.2969,-0.3c0.4379,0 0.8309,0.07 1.1789,0.23c0.348,0.15 0.629,0.37 0.842,0.66c0.219,0.28 0.348,0.62 0.388,1.02l-1.676,0.06c-0.034,-0.26 -0.115,-0.46 -0.244,-0.59c-0.13,-0.14 -0.292,-0.21 -0.4889,-0.21c-0.2527,0 -0.4463,0.11 -0.5811,0.32c-0.1347,0.2 -0.2021,0.5 -0.2021,0.88c0,0.39 0.0674,0.69 0.2021,0.89c0.1348,0.21 0.3284,0.31 0.5811,0.31c0.2019,0 0.3679,-0.06 0.4969,-0.19c0.135,-0.13 0.213,-0.34 0.236,-0.63l1.676,0.05c-0.034,0.4 -0.158,0.74 -0.371,1.04c-0.208,0.29 -0.486,0.51 -0.834,0.67c-0.348,0.16 -0.749,0.24 -1.2039,0.24zM25.211,46.84c-0.489,0 -0.915,-0.1 -1.28,-0.3c-0.365,-0.2 -0.649,-0.47 -0.851,-0.82c-0.202,-0.36 -0.303,-0.78 -0.303,-1.26c0,-0.48 0.101,-0.89 0.303,-1.25c0.202,-0.35 0.486,-0.62 0.851,-0.82c0.365,-0.2 0.791,-0.3 1.28,-0.3c0.488,0 0.909,0.1 1.263,0.31c0.359,0.2 0.634,0.49 0.825,0.86c0.191,0.38 0.286,0.82 0.286,1.34v0.28h-3.124c0.011,0.28 0.087,0.48 0.228,0.62c0.146,0.13 0.331,0.19 0.555,0.19c0.163,0 0.301,-0.03 0.413,-0.09c0.118,-0.06 0.202,-0.17 0.253,-0.33l1.617,0.08c-0.124,0.49 -0.393,0.86 -0.809,1.11c-0.415,0.25 -0.918,0.38 -1.507,0.38zM24.461,44.01h1.491c-0.006,-0.27 -0.076,-0.47 -0.211,-0.6c-0.134,-0.14 -0.311,-0.21 -0.53,-0.21c-0.208,0 -0.382,0.07 -0.522,0.22c-0.135,0.14 -0.211,0.34 -0.228,0.59zM28.461,46.73v-5.97h4.371v1.32h-3.663l0.943,-0.98v2.74l-0.943,-0.68h3.511v1.31h-3.511l0.943,-0.68v2.94zM33.67,46.73v-4.54h1.633v4.54zM33.644,41.73v-1.14h1.685v1.14zM36.453,46.73v-4.54h1.465l0.068,1.45l-0.202,-0.02c0.033,-0.39 0.118,-0.69 0.252,-0.91c0.141,-0.23 0.315,-0.39 0.522,-0.48c0.214,-0.1 0.45,-0.14 0.708,-0.14c0.314,0 0.586,0.06 0.817,0.2c0.235,0.13 0.418,0.33 0.547,0.59c0.129,0.25 0.194,0.56 0.194,0.93v2.92h-1.634v-2.35c0,-0.22 -0.014,-0.41 -0.042,-0.56c-0.023,-0.16 -0.073,-0.27 -0.152,-0.35c-0.073,-0.09 -0.182,-0.13 -0.328,-0.13c-0.208,0 -0.357,0.09 -0.446,0.27c-0.09,0.18 -0.135,0.44 -0.135,0.77v2.35zM43.444,46.84c-0.376,0 -0.702,-0.1 -0.977,-0.29c-0.269,-0.2 -0.48,-0.47 -0.631,-0.83c-0.146,-0.36 -0.219,-0.78 -0.219,-1.26c0,-0.48 0.076,-0.9 0.227,-1.25c0.152,-0.36 0.365,-0.64 0.64,-0.83c0.275,-0.2 0.595,-0.29 0.96,-0.29c0.337,0 0.618,0.06 0.842,0.2c0.225,0.13 0.396,0.32 0.514,0.55v-2.08h1.634v5.97h-1.592l-0.025,-0.65c-0.124,0.24 -0.306,0.43 -0.548,0.56c-0.235,0.13 -0.51,0.2 -0.825,0.2zM44.042,45.66c0.163,0 0.3,-0.04 0.413,-0.12c0.112,-0.09 0.196,-0.21 0.252,-0.39c0.062,-0.18 0.093,-0.41 0.093,-0.69c0,-0.28 -0.031,-0.51 -0.093,-0.68c-0.056,-0.18 -0.14,-0.31 -0.252,-0.4c-0.113,-0.08 -0.25,-0.12 -0.413,-0.12c-0.23,0 -0.413,0.11 -0.547,0.32c-0.135,0.22 -0.202,0.51 -0.202,0.88c0,0.36 0.067,0.65 0.202,0.88c0.14,0.22 0.323,0.32 0.547,0.32zM48.904,46.84c-0.477,0 -0.87,-0.11 -1.179,-0.33c-0.308,-0.22 -0.463,-0.53 -0.463,-0.92c0,-0.41 0.132,-0.71 0.396,-0.93c0.27,-0.22 0.651,-0.38 1.145,-0.49l1.365,-0.28c0,-0.24 -0.051,-0.42 -0.152,-0.54c-0.101,-0.12 -0.241,-0.19 -0.421,-0.19c-0.191,0 -0.34,0.05 -0.446,0.15c-0.101,0.09 -0.166,0.22 -0.194,0.4l-1.617,-0.05c0.09,-0.55 0.328,-0.95 0.716,-1.2c0.387,-0.25 0.901,-0.37 1.541,-0.37c0.741,0 1.294,0.16 1.659,0.48c0.365,0.32 0.547,0.8 0.547,1.45v1.33c0,0.15 0.023,0.24 0.068,0.29c0.05,0.04 0.117,0.07 0.202,0.07h0.092v1.02c-0.05,0.02 -0.132,0.04 -0.244,0.05c-0.112,0.01 -0.222,0.02 -0.328,0.02c-0.163,0 -0.332,-0.03 -0.506,-0.08c-0.174,-0.06 -0.32,-0.17 -0.437,-0.32c-0.118,-0.17 -0.177,-0.4 -0.177,-0.71l0.118,0.13c-0.062,0.21 -0.163,0.39 -0.304,0.54c-0.14,0.16 -0.325,0.27 -0.555,0.36c-0.225,0.08 -0.5,0.12 -0.826,0.12zM49.359,45.81c0.152,0 0.286,-0.03 0.404,-0.09c0.124,-0.07 0.222,-0.16 0.295,-0.28c0.073,-0.13 0.11,-0.29 0.11,-0.49v-0.15l-0.742,0.18c-0.14,0.04 -0.258,0.09 -0.353,0.17c-0.09,0.07 -0.135,0.17 -0.135,0.29c0,0.12 0.034,0.21 0.101,0.28c0.067,0.06 0.174,0.09 0.32,0.09z" fill="#3479FD"/>
</g></svg>