<svg width="53" height="48" viewBox="0 0 53 48" fill="none" xmlns="http://www.w3.org/2000/svg">
<path d="M0 28.6316V0H33.6842V8.42105H30.3158V5.89474V3.36842H16.8421H3.36842V25.2632H21.8947V28.6316H0Z" fill="#205BF3"/>
<path d="M0 30.3125V37.0493H26.9474V30.3125H0Z" fill="#205BF3"/>
<path d="M35.3691 0H52.2112V21.8947H35.3691V16.4211V10.9474V0Z" fill="#205BF3"/>
<path d="M52.2111 23.5781V37.0518H30.3164V35.3676H50.5269V25.2623H42.1059V23.5781H52.2111Z" fill="#205BF3"/>
<path d="M29.9619 23.3379C29.6559 23.3379 29.3629 23.4594 29.1465 23.6758C28.9301 23.8922 28.8086 24.1852 28.8086 24.4912C28.8086 24.7194 28.8762 24.9421 29.0029 25.1318C29.1297 25.3216 29.3097 25.4703 29.5205 25.5576C29.7311 25.6448 29.963 25.6674 30.1865 25.623C30.4103 25.5785 30.616 25.468 30.7773 25.3066C30.9387 25.1453 31.0492 24.9396 31.0938 24.7158C31.1381 24.4923 31.1155 24.2604 31.0283 24.0498C30.941 23.839 30.7923 23.659 30.6025 23.5322C30.4128 23.4055 30.1901 23.3379 29.9619 23.3379ZM38.6611 24.4912C38.6611 28.0965 36.759 31.1436 34.9893 33.2168C33.2047 35.3072 31.3864 36.6034 31.1836 36.7451C30.8254 36.996 30.3993 37.1318 29.9619 37.1318C29.5245 37.1318 29.0975 36.997 28.7393 36.7461V36.7451C28.5333 36.6011 26.7172 35.305 24.9346 33.2168C23.1648 31.1436 21.2627 28.0965 21.2627 24.4912V24.4893C21.2654 22.1834 22.183 19.9733 23.8135 18.3428C25.444 16.7123 27.6541 15.7947 29.96 15.792H29.9639C32.2697 15.7947 34.4799 16.7123 36.1104 18.3428C37.7408 19.9733 38.6584 22.1834 38.6611 24.4893V24.4912Z" fill="#205BF3" stroke="white" stroke-width="2.94737"/>
<path d="M3.09053 46.8691C2.54035 46.8691 2.07158 46.7821 1.68421 46.6081C1.29684 46.434 0.996491 46.187 0.783158 45.867C0.569825 45.547 0.449123 45.1681 0.421053 44.7302L2.06316 44.6544C2.09123 44.8509 2.14737 45.0193 2.23158 45.1596C2.31579 45.2944 2.42807 45.3982 2.56842 45.4712C2.71439 45.5386 2.89404 45.5723 3.10737 45.5723C3.27579 45.5723 3.41895 45.5554 3.53684 45.5217C3.65474 45.4824 3.74456 45.4235 3.80632 45.3449C3.86807 45.2663 3.89895 45.1681 3.89895 45.0502C3.89895 44.9435 3.87088 44.8509 3.81474 44.7723C3.76421 44.6881 3.66035 44.6151 3.50316 44.5533C3.35158 44.486 3.12421 44.4214 2.82105 44.3596C2.27649 44.2474 1.83579 44.1182 1.49895 43.9723C1.16211 43.8207 0.915088 43.627 0.757895 43.3912C0.606316 43.1554 0.530526 42.8551 0.530526 42.4902C0.530526 42.1196 0.625965 41.794 0.816842 41.5133C1.00772 41.2326 1.28281 41.0137 1.64211 40.8565C2.0014 40.6993 2.43368 40.6207 2.93895 40.6207C3.47228 40.6207 3.9186 40.7105 4.2779 40.8902C4.63719 41.0698 4.91509 41.3168 5.11158 41.6312C5.31368 41.9456 5.43439 42.3105 5.47368 42.726L3.84842 42.7933C3.83719 42.6081 3.79228 42.4509 3.71368 42.3217C3.63509 42.1926 3.52842 42.0944 3.39368 42.027C3.26456 41.954 3.10737 41.9175 2.92211 41.9175C2.68632 41.9175 2.50386 41.9653 2.37474 42.0607C2.24561 42.1561 2.18105 42.2824 2.18105 42.4396C2.18105 42.5631 2.21193 42.667 2.27368 42.7512C2.34105 42.8354 2.44772 42.9056 2.59368 42.9617C2.74526 43.0179 2.95018 43.0684 3.20842 43.1133C3.7979 43.2144 4.26386 43.3519 4.60632 43.526C4.94877 43.7 5.19018 43.9077 5.33053 44.1491C5.47649 44.3905 5.54947 44.6684 5.54947 44.9828C5.54947 45.3702 5.45123 45.707 5.25474 45.9933C5.06386 46.274 4.78316 46.4902 4.41263 46.6417C4.04772 46.7933 3.60702 46.8691 3.09053 46.8691ZM6.6104 47.9975V42.187H8.20197L8.23566 43.1386L8.12618 43.0965C8.23847 42.7709 8.41811 42.521 8.66513 42.347C8.91215 42.173 9.20408 42.086 9.54092 42.086C9.94513 42.086 10.2876 42.187 10.5683 42.3891C10.849 42.5912 11.0623 42.8719 11.2083 43.2312C11.3543 43.5849 11.4272 43.9947 11.4272 44.4607C11.4272 44.921 11.3514 45.3309 11.1999 45.6902C11.0539 46.0495 10.8378 46.3302 10.5514 46.5323C10.2707 46.7344 9.92829 46.8354 9.52408 46.8354C9.31075 46.8354 9.11145 46.7961 8.92619 46.7175C8.74092 46.6333 8.57811 46.5154 8.43776 46.3638C8.30303 46.2123 8.20197 46.0326 8.13461 45.8249L8.24408 45.7912V47.9975H6.6104ZM8.99355 45.6649C9.22934 45.6649 9.41461 45.5582 9.54934 45.3449C9.68408 45.126 9.75145 44.8312 9.75145 44.4607C9.75145 44.0902 9.68408 43.7982 9.54934 43.5849C9.41461 43.366 9.22934 43.2565 8.99355 43.2565C8.83636 43.2565 8.70162 43.3014 8.58934 43.3912C8.47706 43.481 8.39004 43.6158 8.32829 43.7954C8.27215 43.9751 8.24408 44.1968 8.24408 44.4607C8.24408 44.7246 8.27215 44.9463 8.32829 45.126C8.39004 45.3056 8.47706 45.4403 8.58934 45.5302C8.70162 45.62 8.83636 45.6649 8.99355 45.6649ZM13.6958 46.8354C13.2186 46.8354 12.8256 46.726 12.5168 46.507C12.2081 46.2881 12.0537 45.9821 12.0537 45.5891C12.0537 45.1849 12.1856 44.8761 12.4495 44.6628C12.7189 44.4438 13.1007 44.281 13.5947 44.1744L14.9589 43.8881C14.9589 43.6523 14.9084 43.4726 14.8074 43.3491C14.7063 43.2256 14.566 43.1638 14.3863 43.1638C14.1954 43.1638 14.0467 43.2116 13.94 43.307C13.8389 43.3968 13.7744 43.5316 13.7463 43.7112L12.1295 43.6607C12.2193 43.1105 12.4579 42.7119 12.8453 42.4649C13.2326 42.2123 13.7463 42.086 14.3863 42.086C15.1274 42.086 15.6804 42.246 16.0453 42.566C16.4102 42.886 16.5926 43.3716 16.5926 44.0228V45.3533C16.5926 45.4993 16.6151 45.5947 16.66 45.6396C16.7105 45.6846 16.7779 45.707 16.8621 45.707H16.9547V46.7344C16.9042 46.7512 16.8228 46.7653 16.7105 46.7765C16.5982 46.7933 16.4888 46.8017 16.3821 46.8017C16.2193 46.8017 16.0509 46.7737 15.8768 46.7175C15.7028 46.6614 15.5568 46.5547 15.4389 46.3975C15.3211 46.2347 15.2621 45.9989 15.2621 45.6902L15.38 45.8249C15.3182 46.0326 15.2172 46.2123 15.0768 46.3638C14.9365 46.5154 14.7512 46.6333 14.5211 46.7175C14.2965 46.7961 14.0214 46.8354 13.6958 46.8354ZM14.1505 45.8081C14.3021 45.8081 14.4368 45.7772 14.5547 45.7154C14.6782 45.6537 14.7765 45.561 14.8495 45.4375C14.9225 45.3084 14.9589 45.1456 14.9589 44.9491V44.7975L14.2179 44.9828C14.0775 45.0165 13.9596 45.0726 13.8642 45.1512C13.7744 45.2242 13.7295 45.3196 13.7295 45.4375C13.7295 45.5554 13.7632 45.6481 13.8305 45.7154C13.8979 45.7772 14.0046 45.8081 14.1505 45.8081ZM19.8291 46.8354C19.335 46.8354 18.9028 46.7372 18.5322 46.5407C18.1673 46.3442 17.881 46.0691 17.6733 45.7154C17.4712 45.3561 17.3701 44.9379 17.3701 44.4607C17.3701 43.9835 17.4712 43.5681 17.6733 43.2144C17.881 42.8607 18.1673 42.5856 18.5322 42.3891C18.9028 42.187 19.335 42.086 19.8291 42.086C20.267 42.086 20.66 42.1645 21.008 42.3217C21.3561 42.4733 21.6368 42.6923 21.8501 42.9786C22.0691 43.2593 22.1982 43.5989 22.2375 43.9975L20.5617 44.0649C20.528 43.7954 20.4466 43.5961 20.3175 43.467C20.1884 43.3323 20.0256 43.2649 19.8291 43.2649C19.5764 43.2649 19.3828 43.3688 19.248 43.5765C19.1133 43.7842 19.0459 44.0789 19.0459 44.4607C19.0459 44.8481 19.1133 45.1456 19.248 45.3533C19.3828 45.561 19.5764 45.6649 19.8291 45.6649C20.0312 45.6649 20.1968 45.6003 20.3259 45.4712C20.4607 45.3365 20.5393 45.126 20.5617 44.8396L22.2375 44.8902C22.2038 45.2888 22.0803 45.634 21.867 45.926C21.6593 46.2179 21.3814 46.4424 21.0333 46.5996C20.6852 46.7568 20.2838 46.8354 19.8291 46.8354ZM25.2107 46.8354C24.7223 46.8354 24.2956 46.7372 23.9307 46.5407C23.5658 46.3442 23.2823 46.0691 23.0802 45.7154C22.8781 45.3561 22.777 44.9379 22.777 44.4607C22.777 43.9835 22.8781 43.5681 23.0802 43.2144C23.2823 42.8607 23.5658 42.5856 23.9307 42.3891C24.2956 42.187 24.7223 42.086 25.2107 42.086C25.6991 42.086 26.1202 42.1898 26.4739 42.3975C26.8332 42.5996 27.1083 42.8888 27.2991 43.2649C27.49 43.641 27.5855 44.0846 27.5855 44.5954V44.8817H24.4613C24.4725 45.1568 24.5483 45.3617 24.6886 45.4965C24.8346 45.6256 25.0198 45.6902 25.2444 45.6902C25.4072 45.6902 25.5448 45.6593 25.657 45.5975C25.7749 45.5358 25.8591 45.4263 25.9097 45.2691L27.5265 45.3533C27.403 45.8417 27.1335 46.2123 26.7181 46.4649C26.3027 46.7119 25.8002 46.8354 25.2107 46.8354ZM24.4613 44.006H25.9518C25.9462 43.7421 25.876 43.5428 25.7413 43.4081C25.6065 43.2677 25.4297 43.1975 25.2107 43.1975C25.003 43.1975 24.829 43.2705 24.6886 43.4165C24.5539 43.5624 24.4781 43.7589 24.4613 44.006ZM28.4613 46.7344V40.7554H32.8318V42.0775H29.1686L30.1118 41.1007V43.8375L29.1686 43.1554H32.6802V44.4691H29.1686L30.1118 43.787V46.7344H28.4613ZM33.6696 46.7344V42.187H35.3033V46.7344H33.6696ZM33.6443 41.7323V40.587H35.3286V41.7323H33.6443ZM36.4532 46.7344V42.187H37.9184L37.9858 43.6354L37.7837 43.6186C37.8174 43.2312 37.9016 42.9281 38.0363 42.7091C38.1767 42.4846 38.3507 42.3246 38.5584 42.2291C38.7718 42.1337 39.0075 42.086 39.2658 42.086C39.5802 42.086 39.8525 42.1533 40.0826 42.2881C40.3184 42.4228 40.5009 42.6193 40.63 42.8775C40.7591 43.1302 40.8237 43.4417 40.8237 43.8123V46.7344H39.19V44.3765C39.19 44.1575 39.176 43.9723 39.1479 43.8207C39.1254 43.6635 39.0749 43.5456 38.9963 43.467C38.9233 43.3828 38.8139 43.3407 38.6679 43.3407C38.4602 43.3407 38.3114 43.4305 38.2216 43.6102C38.1318 43.7898 38.0868 44.0453 38.0868 44.3765V46.7344H36.4532ZM43.4442 46.8354C43.0681 46.8354 42.7425 46.74 42.4674 46.5491C42.1979 46.3526 41.9874 46.0775 41.8358 45.7238C41.6898 45.3646 41.6168 44.9435 41.6168 44.4607C41.6168 43.9779 41.6926 43.5596 41.8442 43.206C41.9958 42.8467 42.2091 42.5716 42.4842 42.3807C42.7593 42.1842 43.0793 42.086 43.4442 42.086C43.7811 42.086 44.0618 42.1533 44.2863 42.2881C44.5109 42.4228 44.6821 42.6081 44.8 42.8438V40.7554H46.4337V46.7344H44.8421L44.8168 46.0775C44.6933 46.3189 44.5109 46.507 44.2695 46.6417C44.0337 46.7709 43.7586 46.8354 43.4442 46.8354ZM44.0421 45.6649C44.2049 45.6649 44.3425 45.6228 44.4547 45.5386C44.567 45.4544 44.6512 45.3253 44.7074 45.1512C44.7691 44.9716 44.8 44.7414 44.8 44.4607C44.8 44.18 44.7691 43.9526 44.7074 43.7786C44.6512 43.5989 44.567 43.467 44.4547 43.3828C44.3425 43.2986 44.2049 43.2565 44.0421 43.2565C43.8119 43.2565 43.6295 43.366 43.4947 43.5849C43.36 43.7982 43.2926 44.0902 43.2926 44.4607C43.2926 44.82 43.36 45.1119 43.4947 45.3365C43.6351 45.5554 43.8175 45.6649 44.0421 45.6649ZM48.9043 46.8354C48.4271 46.8354 48.0342 46.726 47.7254 46.507C47.4166 46.2881 47.2622 45.9821 47.2622 45.5891C47.2622 45.1849 47.3942 44.8761 47.658 44.6628C47.9275 44.4438 48.3093 44.281 48.8033 44.1744L50.1675 43.8881C50.1675 43.6523 50.117 43.4726 50.0159 43.3491C49.9149 43.2256 49.7745 43.1638 49.5949 43.1638C49.404 43.1638 49.2552 43.2116 49.1486 43.307C49.0475 43.3968 48.9829 43.5316 48.9549 43.7112L47.338 43.6607C47.4279 43.1105 47.6664 42.7119 48.0538 42.4649C48.4412 42.2123 48.9549 42.086 49.5949 42.086C50.3359 42.086 50.8889 42.246 51.2538 42.566C51.6187 42.886 51.8012 43.3716 51.8012 44.0228V45.3533C51.8012 45.4993 51.8236 45.5947 51.8686 45.6396C51.9191 45.6846 51.9864 45.707 52.0707 45.707H52.1633V46.7344C52.1128 46.7512 52.0314 46.7653 51.9191 46.7765C51.8068 46.7933 51.6973 46.8017 51.5907 46.8017C51.4279 46.8017 51.2594 46.7737 51.0854 46.7175C50.9114 46.6614 50.7654 46.5547 50.6475 46.3975C50.5296 46.2347 50.4707 45.9989 50.4707 45.6902L50.5886 45.8249C50.5268 46.0326 50.4257 46.2123 50.2854 46.3638C50.145 46.5154 49.9598 46.6333 49.7296 46.7175C49.505 46.7961 49.23 46.8354 48.9043 46.8354ZM49.3591 45.8081C49.5107 45.8081 49.6454 45.7772 49.7633 45.7154C49.8868 45.6537 49.985 45.561 50.058 45.4375C50.131 45.3084 50.1675 45.1456 50.1675 44.9491V44.7975L49.4264 44.9828C49.2861 45.0165 49.1682 45.0726 49.0728 45.1512C48.9829 45.2242 48.938 45.3196 48.938 45.4375C48.938 45.5554 48.9717 45.6481 49.0391 45.7154C49.1064 45.7772 49.2131 45.8081 49.3591 45.8081Z" fill="#205BF3"/>
</svg>
