<svg viewBox="0 0 14 14" fill="none" xmlns="http://www.w3.org/2000/svg" xmlns:xlink="http://www.w3.org/1999/xlink" x="0" y="0"><g id="idea-01">
<path id="Vector_24" d="M3.001,8.16c-0.424,-0.69 -0.667,-1.51 -0.667,-2.38c0,-2.55 2.089,-4.62 4.667,-4.62c2.577,0 4.666,2.07 4.666,4.62c0,0.87 -0.243,1.69 -0.666,2.38" stroke="#616161" stroke-linecap="round"/>
<path id="Vector_25" d="M4.306,9.98c-0.054,-0.16 -0.08,-0.25 -0.077,-0.31c0.006,-0.14 0.094,-0.26 0.222,-0.31c0.061,-0.02 0.146,-0.02 0.315,-0.02h4.467c0.169,0 0.254,0 0.315,0.02c0.128,0.05 0.215,0.17 0.222,0.31c0.003,0.06 -0.024,0.15 -0.077,0.31c-0.099,0.29 -0.149,0.44 -0.225,0.56c-0.16,0.26 -0.411,0.44 -0.701,0.51c-0.138,0.04 -0.295,0.04 -0.608,0.04h-2.319c-0.314,0 -0.47,0 -0.608,-0.04c-0.29,-0.07 -0.541,-0.25 -0.701,-0.51c-0.076,-0.12 -0.126,-0.27 -0.225,-0.56z" stroke="#616161"/>
<path id="Vector_26" d="M8.75,11.09l-0.075,0.37c-0.083,0.42 -0.124,0.62 -0.217,0.78c-0.142,0.26 -0.374,0.45 -0.649,0.54c-0.178,0.06 -0.388,0.06 -0.809,0.06c-0.421,0 -0.631,0 -0.809,-0.06c-0.275,-0.09 -0.507,-0.28 -0.649,-0.54c-0.093,-0.16 -0.134,-0.36 -0.217,-0.78l-0.075,-0.37" stroke="#616161"/>
<path id="Vector_27" d="M7.323,3.79l-0.888,0.99c-0.122,0.13 -0.048,0.35 0.132,0.38l0.868,0.16c0.192,0.04 0.259,0.28 0.114,0.4l-1.101,0.99" stroke="#616161" stroke-linecap="round" stroke-linejoin="round"/>
</g></svg>