<svg viewBox="0 0 13.168 13.0723" fill="none" xmlns="http://www.w3.org/2000/svg" xmlns:xlink="http://www.w3.org/1999/xlink" x="0" y="0"><path id="Vector_28" d="M7.592,1.5891l1.027,2.05c0.14,0.29 0.513,0.56 0.828,0.61l1.861,0.31c1.19,0.2 1.47,1.06 0.612,1.91l-1.446,1.45c-0.245,0.25 -0.38,0.72 -0.304,1.06l0.414,1.79c0.327,1.42 -0.425,1.96 -1.68,1.22l-1.744,-1.03c-0.315,-0.19 -0.834,-0.19 -1.155,0l-1.744,1.03c-1.248,0.74 -2.007,0.19 -1.68,-1.22l0.414,-1.79c0.076,-0.34 -0.058,-0.81 -0.303,-1.06l-1.447,-1.45c-0.851,-0.85 -0.577,-1.71 0.613,-1.91l1.861,-0.31c0.309,-0.05 0.682,-0.32 0.822,-0.61l1.027,-2.05c0.56,-1.12 1.47,-1.12 2.024,0z" fill="currentColor" stroke="currentColor" stroke-width="1.5" stroke-linecap="round" stroke-linejoin="round"/></svg>