<svg viewBox="0 0 21.5075 21.505" fill="none" xmlns="http://www.w3.org/2000/svg" xmlns:xlink="http://www.w3.org/1999/xlink" x="0" y="0"><g id="verify_2">
<path id="Vector_6" d="M7.1251,10.7402l2.41,2.42l4.83,-4.84" stroke="#205BF3" stroke-width="1.5" stroke-linecap="round" stroke-linejoin="round"/>
<path id="Vector_7" d="M9.4951,1.1922c0.69,-0.59 1.82,-0.59 2.52,0l1.58,1.36c0.3,0.26 0.86,0.47 1.26,0.47h1.7c1.06,0 1.93,0.87 1.93,1.93v1.7c0,0.39 0.21,0.96 0.47,1.26l1.36,1.58c0.59,0.69 0.59,1.82 0,2.52l-1.36,1.58c-0.26,0.3 -0.47,0.86 -0.47,1.26v1.7c0,1.06 -0.87,1.93 -1.93,1.93h-1.7c-0.39,0 -0.96,0.21 -1.26,0.47l-1.58,1.36c-0.69,0.59 -1.82,0.59 -2.52,0l-1.58,-1.36c-0.3,-0.26 -0.86,-0.47 -1.26,-0.47h-1.73c-1.06,0 -1.93,-0.87 -1.93,-1.93v-1.71c0,-0.39 -0.21,-0.95 -0.46,-1.25l-1.35,-1.59c-0.58,-0.69 -0.58,-1.81 0,-2.5l1.35,-1.59c0.25,-0.3 0.46,-0.86 0.46,-1.25v-1.72c0,-1.06 0.87,-1.93 1.93,-1.93h1.73c0.39,0 0.96,-0.21 1.26,-0.47z" stroke="#205BF3" stroke-width="1.5" stroke-linecap="round" stroke-linejoin="round"/>
</g></svg>