<svg viewBox="0 0 12.5397 9.2242" fill="none" xmlns="http://www.w3.org/2000/svg" xmlns:xlink="http://www.w3.org/1999/xlink" x="0" y="0"><defs><mask id="path-77-inside-3_5007_250001" fill="white">
<path d="M12.1006,2.9272c-0.093,0 -0.186,-0.03 -0.268,-0.09c-3.383,-2.61 -7.7524,-2.61 -11.1299,0c-0.1925,0.15 -0.4666,0.11 -0.6125,-0.08c-0.1458,-0.19 -0.1108,-0.46 0.0759,-0.61c3.7041,-2.86 8.4935,-2.86 12.2035,0c0.192,0.15 0.227,0.42 0.076,0.61c-0.082,0.11 -0.216,0.17 -0.345,0.17z"/>
</mask><mask id="path-79-inside-4_5007_250001" fill="white">
<path d="M9.3076,7.0972c-0.093,0 -0.187,-0.03 -0.268,-0.1c-1.68,-1.3 -3.8561,-1.3 -5.5419,0c-0.1925,0.15 -0.4667,0.11 -0.6125,-0.07c-0.1459,-0.19 -0.1109,-0.47 0.0758,-0.61c2.0067,-1.56 4.6026,-1.56 6.6096,0c0.192,0.14 0.227,0.42 0.075,0.61c-0.081,0.11 -0.21,0.17 -0.338,0.17z"/>
</mask></defs><g id="wifi_2">
<path id="Vector_20" d="M10.4036,4.9572c-0.094,0 -0.187,-0.03 -0.269,-0.09c-2.35,-1.81 -5.3896,-1.81 -7.7405,0c-0.1925,0.15 -0.4666,0.11 -0.6125,-0.08c-0.1458,-0.19 -0.1108,-0.46 0.0759,-0.61c2.6775,-2.07 6.1371,-2.07 8.8081,0c0.193,0.15 0.228,0.42 0.076,0.61c-0.076,0.11 -0.204,0.17 -0.338,0.17z" fill="#616161"/>
<g id="Vector_21">
<mask id="path-77-inside-3_5007_250001" fill="white">
<path d="M104.833 1082.31C104.74 1082.31 104.647 1082.28 104.565 1082.22C101.182 1079.61 96.8126 1079.61 93.4351 1082.22C93.2426 1082.37 92.9685 1082.33 92.8226 1082.14C92.6768 1081.95 92.7118 1081.68 92.8985 1081.53C96.6026 1078.67 101.392 1078.67 105.102 1081.53C105.294 1081.68 105.329 1081.95 105.178 1082.14C105.096 1082.25 104.962 1082.31 104.833 1082.31Z"/>
</mask>
<path d="M12.1006,2.9272c-0.093,0 -0.186,-0.03 -0.268,-0.09c-3.383,-2.61 -7.7524,-2.61 -11.1299,0c-0.1925,0.15 -0.4666,0.11 -0.6125,-0.08c-0.1458,-0.19 -0.1108,-0.46 0.0759,-0.61c3.7041,-2.86 8.4935,-2.86 12.2035,0c0.192,0.15 0.227,0.42 0.076,0.61c-0.082,0.11 -0.216,0.17 -0.345,0.17z" fill="#616161"/>
<path d="M11.8326,2.8372l0.618,-0.79h-0.007zM0.7027,2.8372l0.6039,0.8l0.0081,-0.01zM0.0902,2.7572l-0.7971,0.61h0.0045l0.0046,0.01zM0.1661,2.1472l-0.6117,-0.79h-0.004zM12.3696,2.1472l-0.611,0.79l0.007,0.01zM12.4456,2.7572l-0.786,-0.62l-0.01,0.02l-0.009,0.01zM12.1006,2.9272v-1c0.122,0 0.248,0.04 0.35,0.12l-0.618,0.79l-0.618,0.79c0.265,0.2 0.578,0.3 0.886,0.3zM11.8326,2.8372l0.611,-0.79c-3.743,-2.89 -8.6147,-2.89 -12.3528,0l0.6119,0.79l0.612,0.79c3.0169,-2.33 6.8829,-2.33 9.9069,0zM0.7027,2.8372l-0.6038,-0.8c0.2352,-0.18 0.5827,-0.14 0.7794,0.11l-0.7881,0.61l-0.788,0.62c0.4883,0.62 1.3842,0.73 2.0044,0.26zM0.0902,2.7572l0.7971,-0.6c0.1782,0.23 0.1462,0.58 -0.1056,0.78l-0.6156,-0.79l-0.6157,-0.79c-0.6251,0.49 -0.7271,1.39 -0.2573,2.01zM0.1661,2.1472l0.6117,0.79c3.3436,-2.58 7.6298,-2.58 10.9808,0l0.611,-0.79l0.611,-0.79c-4.07,-3.14 -9.3615,-3.14 -13.4262,0zM12.3696,2.1472l-0.604,0.8c-0.259,-0.2 -0.297,-0.56 -0.106,-0.81l0.786,0.62l0.785,0.62c0.494,-0.62 0.386,-1.54 -0.257,-2.03zM12.4456,2.7572l-0.805,-0.59c0.127,-0.17 0.308,-0.24 0.46,-0.24v1v1c0.41,0 0.859,-0.18 1.15,-0.57z" fill="#616161" mask="url(#path-77-inside-3_5007_250001)"/>
</g>
<g id="Vector_22">
<mask id="path-79-inside-4_5007_250001" fill="white">
<path d="M102.04 1086.48C101.947 1086.48 101.853 1086.45 101.772 1086.38C100.092 1085.08 97.9159 1085.08 96.2301 1086.38C96.0376 1086.53 95.7634 1086.49 95.6176 1086.31C95.4717 1086.12 95.5067 1085.84 95.6934 1085.7C97.7001 1084.14 100.296 1084.14 102.303 1085.7C102.495 1085.84 102.53 1086.12 102.378 1086.31C102.297 1086.42 102.168 1086.48 102.04 1086.48Z"/>
</mask>
<path d="M9.3076,7.0972c-0.093,0 -0.187,-0.03 -0.268,-0.1c-1.68,-1.3 -3.8561,-1.3 -5.5419,0c-0.1925,0.15 -0.4667,0.11 -0.6125,-0.07c-0.1459,-0.19 -0.1109,-0.47 0.0758,-0.61c2.0067,-1.56 4.6026,-1.56 6.6096,0c0.192,0.14 0.227,0.42 0.075,0.61c-0.081,0.11 -0.21,0.17 -0.338,0.17z" fill="#616161"/>
<path d="M9.0396,6.9972l0.618,-0.78l-0.006,-0.01zM3.4977,6.9972l0.6038,0.8h0.0071zM2.8852,6.9272l-0.7971,0.6l0.0045,0.01h0.0045zM2.961,6.3172l-0.6117,-0.8l-0.0039,0.01zM9.5706,6.3172l-0.612,0.79h0.008zM9.6456,6.9272l-0.785,-0.62l-0.01,0.01l-0.01,0.01zM9.3076,7.0972v-1c0.122,0 0.248,0.04 0.35,0.12l-0.618,0.78l-0.618,0.79c0.265,0.21 0.578,0.31 0.886,0.31zM9.0396,6.9972l0.612,-0.79c-2.041,-1.58 -4.7197,-1.58 -6.7648,0l0.6109,0.79l0.6109,0.8c1.3265,-1.03 2.9996,-1.03 4.319,-0.01zM3.4977,6.9972l-0.6039,-0.79c0.2352,-0.18 0.5827,-0.15 0.7794,0.1l-0.788,0.62l-0.7881,0.61c0.4884,0.63 1.3843,0.73 2.0044,0.26zM2.8852,6.9272l0.7971,-0.61c0.1781,0.24 0.1461,0.59 -0.1057,0.78l-0.6156,-0.78l-0.6156,-0.79c-0.6251,0.49 -0.7272,1.38 -0.2573,2zM2.961,6.3172l0.6117,0.79c1.6464,-1.28 3.7389,-1.28 5.3859,0l0.612,-0.79l0.611,-0.8c-2.367,-1.83 -5.4654,-1.83 -7.8323,0zM9.5706,6.3172l-0.604,0.79c-0.259,-0.19 -0.297,-0.56 -0.106,-0.8l0.785,0.62l0.786,0.62c0.494,-0.63 0.386,-1.54 -0.258,-2.03zM9.6456,6.9272l-0.805,-0.6c0.12,-0.16 0.299,-0.23 0.467,-0.23v1v1c0.424,0 0.861,-0.2 1.143,-0.58z" fill="#616161" mask="url(#path-79-inside-4_5007_250001)"/>
</g>
<path id="Vector_23" d="M7.7846,9.2272c-0.094,0 -0.187,-0.03 -0.269,-0.1c-0.7581,-0.59 -1.744,-0.59 -2.5023,0c-0.1925,0.15 -0.4667,0.11 -0.6125,-0.07c-0.1458,-0.19 -0.1109,-0.47 0.0758,-0.61c1.085,-0.84 2.485,-0.84 3.57,0c0.193,0.14 0.228,0.42 0.076,0.61c-0.076,0.1 -0.204,0.17 -0.338,0.17z" fill="#616161"/>
</g></svg>